<svg width="110" height="20" viewBox="0 0 110 20" fill="none" xmlns="http://www.w3.org/2000/svg">
<path d="M10 0L11.9098 6.69208L18.6603 5L13.8197 10L18.6603 15L11.9098 13.3079L10 20L8.09017 13.3079L1.33975 15L6.18034 10L1.33975 5L8.09017 6.69208L10 0Z" fill="#E4002B"/>
<path d="M40 0L41.9098 6.69208L48.6603 5L43.8197 10L48.6603 15L41.9098 13.3079L40 20L38.0902 13.3079L31.3397 15L36.1803 10L31.3397 5L38.0902 6.69208L40 0Z" fill="#E4002B"/>
<path d="M70 0L71.9098 6.69208L78.6603 5L73.8197 10L78.6603 15L71.9098 13.3079L70 20L68.0902 13.3079L61.3397 15L66.1803 10L61.3397 5L68.0902 6.69208L70 0Z" fill="#E4002B"/>
<path d="M100 0L101.91 6.69208L108.66 5L103.82 10L108.66 15L101.91 13.3079L100 20L98.0902 13.3079L91.3397 15L96.1803 10L91.3397 5L98.0902 6.69208L100 0Z" fill="#E4002B"/>
</svg>
